<svg width="123" height="32" viewBox="0 0 123 32" fill="none" xmlns="http://www.w3.org/2000/svg">
<path d="M12.48 7.616H20.96C20.832 2.464 16.352 0 10.56 0C5.024 0 0.128001 2.688 0.128001 7.264C0.128001 13.216 5.44 14.048 10.336 14.464C11.936 14.624 12.48 14.976 12.48 15.712C12.48 16.544 11.648 16.8 10.688 16.8C9.696 16.8 8.704 16.512 8.704 15.424H0C0.0320007 21.088 4.96 23.68 10.56 23.68C15.584 23.68 21.312 21.92 21.312 16C21.312 9.92 15.04 9.376 10.336 8.992C9.568 8.928 8.96 8.576 8.96 7.808C8.96 6.88 9.952 6.56 10.72 6.56C11.584 6.56 12.448 6.912 12.48 7.616Z" fill="white"/>
<path fill-rule="evenodd" clip-rule="evenodd" d="M22.2233 23.072H30.9593V17.856H31.7273C37.2633 17.824 42.4793 15.936 42.4793 9.248C42.4793 2.56 37.2952 0.703999 31.7273 0.671999H22.2233V23.072ZM31.9193 11.2H30.8633V7.424H31.9193C33.3593 7.424 34.0312 8.224 34.0312 9.28C34.0312 10.368 33.3593 11.168 31.9193 11.2Z" fill="white"/>
<path fill-rule="evenodd" clip-rule="evenodd" d="M43.282 11.808C43.346 -3.872 67.474 -3.84 67.538 11.808C67.474 27.264 43.346 27.424 43.282 11.808ZM51.922 11.776C51.954 16.96 58.77 16.928 58.802 11.776C58.77 6.56 51.954 6.56 51.922 11.776Z" fill="white"/>
<path fill-rule="evenodd" clip-rule="evenodd" d="M78.053 17.12H78.661L79.04 17.912H79.904V12.272H86.432V23.072H87.9774C87.9772 23.056 87.9771 23.04 87.977 23.024V17.9495L86.661 15.456C87.1423 15.161 87.584 14.8171 87.977 14.4188V12.272H89.3737C89.7491 11.3339 89.957 10.2273 89.957 8.928C89.957 2.24 84.549 0.703999 78.981 0.671999H69.317V23.072H70.352V12.272H76.904V17.912H78.053V17.12ZM79.173 10.4H77.957V7.392H79.173C80.613 7.392 81.285 7.872 81.285 8.928C81.285 10.016 80.613 10.368 79.173 10.4Z" fill="white"/>
<path d="M103.457 23.072C103.457 23.056 103.457 23.04 103.457 23.024V12.272H96.905V23C96.9042 23.0244 96.9028 23.0484 96.9007 23.072H95.8015V7.68H91.0335V0.671999H109.306V7.68H104.537V12.272H104.407V23.072H103.457Z" fill="white"/>
<path d="M72.352 14.272C74.536 14.272 76.72 14.272 78.904 14.272V19.912H81.904V14.272C84.064 14.272 86.248 14.272 88.432 14.272V31.072H81.904V25.216H78.904V31.072H72.352V14.272Z" fill="white"/>
<path d="M96.553 25C96.553 25.672 97.129 26.056 97.705 26.056C98.329 26.056 98.881 25.72 98.905 25V14.272H105.457V25.024C105.433 29.392 101.641 31.408 97.729 31.408C93.817 31.408 90.001 29.392 89.977 25.024V14.272H96.553V25Z" fill="white"/>
<path d="M106.407 14.272H117.015C119.511 14.272 121.503 16.384 121.431 18.88C121.407 20.224 120.687 21.472 119.367 21.928C121.359 22.696 122.415 23.992 122.295 26.2C122.175 29.08 119.919 31.072 116.967 31.072H106.407V14.272ZM112.959 24.352V26.464H114.591C115.431 26.464 115.791 25.936 115.791 25.408C115.791 24.88 115.455 24.352 114.591 24.352H112.959ZM112.959 18.76V20.512H114.183C115.311 20.512 115.383 18.76 114.183 18.76H112.959Z" fill="white"/>
</svg>
